<svg xmlns="http://www.w3.org/2000/svg" width="310" height="310" viewBox="0 0 310 310">
    <g fill="none" fill-rule="evenodd">
        <g fill="#000" fill-rule="nonzero">
            <g>
                <path d="M6.025 75.918c3.328 0 6.026-2.697 6.026-6.025V12.051h57.842c3.328 0 6.025-2.698 6.025-6.026S73.221 0 69.893 0H6.025C2.697 0 0 2.697 0 6.025v63.868c0 3.328 2.697 6.025 6.025 6.025zM75.918 303.975c0-3.328-2.697-6.026-6.025-6.026H12.051v-57.842c0-3.328-2.698-6.025-6.026-6.025S0 236.779 0 240.107v63.868C0 307.303 2.697 310 6.025 310h63.868c3.328 0 6.025-2.697 6.025-6.025zM303.975 234.082c-3.328 0-6.026 2.697-6.026 6.025v57.842h-57.842c-3.328 0-6.025 2.698-6.025 6.026s2.697 6.025 6.025 6.025h63.868c3.328 0 6.025-2.697 6.025-6.025v-63.868c0-3.328-2.697-6.025-6.025-6.025zM303.975 0h-63.868c-3.328 0-6.025 2.697-6.025 6.025 0 3.328 2.697 6.026 6.025 6.026h57.842v57.842c0 3.328 2.698 6.025 6.026 6.025S310 73.221 310 69.893V6.025C310 2.697 307.303 0 303.975 0z" transform="translate(-43 -208) translate(43 208)"/>
            </g>
        </g>
    </g>
</svg>
