<svg xmlns="http://www.w3.org/2000/svg" width="575" height="406" viewBox="0 0 575 406">
    <g fill="none" fill-rule="evenodd">
        <g>
            <g>
                <g>
                    <g fill-rule="nonzero" transform="translate(-50 -50) matrix(-1 0 0 1 624 50) translate(0 .058) scale(1 -1) rotate(15 1565.816 78.667)">
                        <ellipse cx="179.409" cy="207.646" fill="#E1E5F0" rx="39.93" ry="43.038"/>
                        <path fill="#F2F6FB" d="M27.531 201.257l45.67 73.92L.084 286.214l27.447-84.958zm85.33-29.746v101.167H88.323L36.631 189.26l76.23-17.75zm168.7 35.613l10.654 36.593-54.45 6.85 2.236-37.052 41.56-6.39zm83.643-70.235l15.363 99.453-62.994 6.745-16.347-96.065 63.978-10.133zm-185.503 35.74c18.043 0 32.67 15.766 32.67 35.214 0 19.447-14.627 35.212-32.67 35.212s-32.67-15.765-32.67-35.212c0-19.448 14.627-35.213 32.67-35.213zM447.33 121.18l27.107 63.006-80.669 49.824-17.395-97.871 70.957-14.959zm-165.477 26.03v46.736l-45.725 7.481-7.687-41.247 53.412-12.97zM99.143.332l48.664 20.22-27.56 125.796-79.265 13.839L99.143.331zm66.972 28.722l34.194 14.882-23.34 93.261-45.598 9.791 34.744-117.934zm55.4 19.558l47.95 20.795 4.63 53.643-72.46 10.347 19.88-84.785zm185.723-1.78l26.431 44.538-145.917 29.458-5.504-41.04 66.492-11.4 58.498-21.556zm-77.253-21.47l9.663 33.1-58.511 11.111-.203-32.045 49.05-12.167zM384.35 7.66l12.506 31.963-47.071 15.91-8.077-32.489L384.351 7.66zm14.793-2.608l38.31.582c2.988.045 5.619 1.984 6.547 4.825 1.175 3.597-.722 7.46-4.248 8.747l-.233.08-32.553 10.633-7.823-24.867z"/>
                    </g>
                    <path fill="#D8DEED" fill-rule="nonzero" d="M251.949 298.07c6.014 0 10.89 5.255 10.89 11.738 0 6.482-4.876 11.737-10.89 11.737s-10.89-5.255-10.89-11.737c0-6.483 4.876-11.738 10.89-11.738zm-5.655-27.385c1.867-1.143 4.241-.439 5.303 1.574l6.917 13.12c1.062 2.013.408 4.572-1.46 5.716-1.867 1.144-4.24.44-5.302-1.573l-6.918-13.12c-1.061-2.014-.408-4.573 1.46-5.717zm-13.836-26.24c1.867-1.144 4.241-.44 5.303 1.573l6.918 13.12c1.06 2.013.407 4.572-1.46 5.716-1.868 1.144-4.242.44-5.303-1.573l-6.918-13.12c-1.061-2.013-.408-4.572 1.46-5.716zm-13.962-26.163c1.86-1.156 4.239-.466 5.31 1.54l6.989 13.078c1.071 2.006.432 4.569-1.43 5.724-1.861 1.156-4.239.466-5.311-1.54l-6.988-13.078c-1.072-2.006-.432-4.569 1.43-5.724zm9.332-14.652c2.137-.23 4.042 1.452 4.255 3.756.213 2.303-1.347 4.357-3.484 4.587l-13.933 1.496c-2.137.23-4.042-1.452-4.255-3.756-.213-2.304 1.347-4.357 3.484-4.587zm27.864-2.993c2.138-.23 4.043 1.452 4.256 3.756.213 2.304-1.347 4.358-3.485 4.587l-13.932 1.496c-2.137.23-4.043-1.452-4.256-3.755-.213-2.304 1.347-4.358 3.485-4.587zm27.865-2.992c2.137-.23 4.042 1.452 4.255 3.756.213 2.304-1.347 4.357-3.484 4.587l-13.932 1.496c-2.138.23-4.043-1.452-4.256-3.756-.213-2.304 1.347-4.357 3.484-4.587zm27.864-2.992c2.138-.23 4.043 1.452 4.256 3.755.213 2.304-1.347 4.358-3.484 4.587l-13.933 1.497c-2.137.23-4.043-1.452-4.255-3.756-.213-2.304 1.347-4.358 3.484-4.587zm27.865-2.993c2.137-.23 4.043 1.452 4.256 3.756.213 2.304-1.347 4.358-3.485 4.587l-13.932 1.496c-2.138.23-4.043-1.452-4.256-3.755-.213-2.304 1.347-4.358 3.485-4.587zm27.865-2.992c2.137-.23 4.042 1.452 4.255 3.756.213 2.304-1.347 4.357-3.484 4.587l-13.933 1.496c-2.137.23-4.042-1.452-4.255-3.756-.213-2.304 1.347-4.357 3.484-4.587zm27.864-2.992c2.138-.23 4.043 1.452 4.256 3.755.213 2.304-1.347 4.358-3.485 4.587l-13.932 1.497c-2.137.229-4.043-1.452-4.256-3.756-.213-2.304 1.347-4.358 3.485-4.587zm28.016-2.345c2.142-.171 4.007 1.561 4.166 3.87.159 2.31-1.449 4.32-3.591 4.49l-13.963 1.117c-2.142.172-4.007-1.561-4.166-3.87-.16-2.309 1.449-4.32 3.59-4.49zm27.925-2.233c2.143-.171 4.008 1.562 4.167 3.87.159 2.31-1.45 4.32-3.591 4.491l-13.963 1.117c-2.142.17-4.007-1.562-4.166-3.87-.16-2.31 1.448-4.32 3.59-4.491zm28.034-1.987c2.146-.116 3.972 1.665 4.079 3.977.107 2.312-1.545 4.28-3.69 4.396l-9.633.518-4.251.34c-2.077.167-3.894-1.457-4.147-3.661l-.02-.208c-.158-2.31 1.45-4.32 3.591-4.491l4.29-.343.094-.006zm2.818-24.523c.386-2.277 2.412-3.786 4.525-3.37 2.113.417 3.513 2.6 3.126 4.878l-2.519 14.845c-.386 2.278-2.412 3.786-4.525 3.37-2.113-.417-3.513-2.6-3.126-4.878zm5.038-29.69c.386-2.277 2.412-3.786 4.525-3.37 2.113.417 3.513 2.6 3.126 4.878l-2.519 14.845c-.386 2.278-2.412 3.786-4.525 3.37-2.113-.417-3.513-2.6-3.126-4.878zm-2.061-35.869c6.014 0 10.89 5.255 10.89 11.738 0 6.482-4.876 11.737-10.89 11.737s-10.89-5.255-10.89-11.737c0-6.483 4.876-11.738 10.89-11.738z" transform="translate(-50 -50) matrix(-1 0 0 1 624 50) translate(0 .058)"/>
                    <g transform="translate(-50 -50) matrix(-1 0 0 1 624 50) translate(0 .058) translate(167.423 72.82)">
                        <path fill="#196BB1" fill-rule="nonzero" d="M34.789 82.271c13.798-25.654 20.698-43.196 20.698-52.624C55.487 13.273 43.065 0 27.743 0S0 13.273 0 29.647c0 9.428 6.9 26.97 20.698 52.624 2.093 3.891 6.944 5.35 10.835 3.256 1.38-.742 2.513-1.875 3.256-3.256z"/>
                        <ellipse cx="28.003" cy="32.698" fill="#FFF" rx="16.076" ry="17.606"/>
                    </g>
                </g>
                <g transform="translate(-50 -50) matrix(-1 0 0 1 624 50) translate(451.597 81.821)">
                    <path fill="#E1E5F0" fill-rule="nonzero" d="M0 7.995C0 3.58 3.583 0 7.998 0h104.83c4.417 0 7.998 3.573 7.998 7.995v179.077c0 4.416-3.583 7.996-7.998 7.996H7.998c-4.417 0-7.998-3.574-7.998-7.996V7.995z"/>
                    <path fill="#F2F6FB" fill-rule="nonzero" d="M61.005 172.118c3.598 0 6.515 3.14 6.515 7.013 0 3.872-2.917 7.012-6.515 7.012s-6.515-3.14-6.515-7.012c0-3.873 2.917-7.013 6.515-7.013zm51.671-150.32c1.11 0 2.008.905 2.008 1.995v90.47c0 1.102-.893 1.995-2.008 1.995H7.712c-1.109 0-2.008-.905-2.008-1.995v-90.47c0-1.102.893-1.995 2.008-1.995h104.964zM59.821 11.475c.981 0 1.777.856 1.777 1.912s-.796 1.912-1.777 1.912c-.982 0-1.777-.856-1.777-1.912s.795-1.912 1.777-1.912z"/>
                    <rect width="108.899" height="67.072" x="6.223" y="98.931" fill="#FFF" rx="2"/>
                    <path fill="#A339FF" fill-rule="nonzero" d="M92.823 87.94v-9.502h2.087c1.565 0 3.618-2.112 3.618-4.465 0-2.353-1.277-2.472-2.39-6.896-.589-2.34-2.385-3.386-5.389-3.134-3.004-.252-4.8.793-5.389 3.134-1.113 4.424-2.39 4.543-2.39 6.896 0 2.353 2.053 4.465 3.618 4.465h6.747-5.172 1.549v9.502H55.487l3.71-28.02c.291-2.202 2.042-3.839 4.107-3.839h31.992c2.186 0 3.997 1.828 4.14 4.179l1.684 27.68h-8.297zm-68.45 0l2.576-45.176c.134-2.359 1.948-4.198 4.14-4.198h16.36c2.265 0 4.11 1.957 4.149 4.396L52.3 87.94H24.373zm20.742-39.684c-.573 0-1.037.5-1.037 1.118v5.59c0 .617.464 1.117 1.037 1.117h2.593c.573 0 1.037-.5 1.037-1.118v-5.59c0-.617-.464-1.117-1.037-1.117h-2.593zm-8.815 0c-.573 0-1.038.5-1.038 1.118v5.59c0 .617.465 1.117 1.038 1.117h2.592c.573 0 1.038-.5 1.038-1.118v-5.59c0-.617-.465-1.117-1.038-1.117H36.3zm8.815 12.855c-.573 0-1.037.5-1.037 1.118v5.59c0 .617.464 1.117 1.037 1.117h2.593c.573 0 1.037-.5 1.037-1.117v-5.59c0-.617-.464-1.118-1.037-1.118h-2.593zm-8.815 0c-.573 0-1.038.5-1.038 1.118v5.59c0 .617.465 1.117 1.038 1.117h2.592c.573 0 1.038-.5 1.038-1.117v-5.59c0-.617-.465-1.118-1.038-1.118H36.3zm8.815 12.856c-.573 0-1.037.5-1.037 1.118v5.59c0 .616.464 1.117 1.037 1.117h2.593c.573 0 1.037-.5 1.037-1.118v-5.59c0-.617-.464-1.117-1.037-1.117h-2.593zm-8.815 0c-.573 0-1.038.5-1.038 1.118v5.59c0 .616.465 1.117 1.038 1.117h2.592c.573 0 1.038-.5 1.038-1.118v-5.59c0-.617-.465-1.117-1.038-1.117H36.3zM73.118 61.11c-.573 0-1.037.5-1.037 1.118v5.59c0 .617.464 1.117 1.037 1.117h2.593c.572 0 1.037-.5 1.037-1.117v-5.59c0-.617-.465-1.118-1.037-1.118h-2.593zm-8.816 0c-.573 0-1.037.5-1.037 1.118v5.59c0 .617.464 1.117 1.037 1.117h2.593c.573 0 1.037-.5 1.037-1.117v-5.59c0-.617-.464-1.118-1.037-1.118h-2.593zm8.816 12.856c-.573 0-1.037.5-1.037 1.118v5.59c0 .616.464 1.117 1.037 1.117h2.593c.572 0 1.037-.5 1.037-1.118v-5.59c0-.617-.465-1.117-1.037-1.117h-2.593zm-8.816 0c-.573 0-1.037.5-1.037 1.118v5.59c0 .616.464 1.117 1.037 1.117h2.593c.573 0 1.037-.5 1.037-1.118v-5.59c0-.617-.464-1.117-1.037-1.117h-2.593z"/>
                    <path fill="#E1E5F0" fill-rule="nonzero" d="M95.214 140.851c1.544 0 2.795 1.251 2.795 2.795 0 1.543-1.251 2.794-2.795 2.794H23.537c-1.543 0-2.794-1.25-2.794-2.794s1.25-2.795 2.794-2.795h71.677zm0-11.179c1.544 0 2.795 1.252 2.795 2.795 0 1.544-1.251 2.795-2.795 2.795H23.537c-1.543 0-2.794-1.251-2.794-2.795 0-1.543 1.25-2.795 2.794-2.795h71.677z"/>
                    <rect width="77.266" height="5.589" x="20.743" y="118.494" fill="#E1E5F0" fill-rule="nonzero" rx="2.795"/>
                </g>
            </g>
        </g>
    </g>
</svg>
